<svg width="16" height="18" viewBox="0 0 16 18" fill="none" xmlns="http://www.w3.org/2000/svg">
<path d="M10 17C10 17.5523 10.4477 18 11 18C11.5523 18 12 17.5523 12 17V3.41424L14.2929 5.70714C14.6834 6.09766 15.3166 6.09766 15.7071 5.70714C16.0976 5.31661 16.0976 4.68345 15.7071 4.29292L11.7071 0.292922C11.4211 0.00692457 10.991 -0.0786315 10.6173 0.0761499C10.2436 0.230931 10 0.595567 10 1.00003V17ZM6 1.00003C6 0.447746 5.55228 3.04744e-05 5 3.04744e-05C4.44772 3.04744e-05 4 0.447746 4 1.00003V14.5858L1.70711 12.2929C1.31658 11.9024 0.683417 11.9024 0.292893 12.2929C-0.0976311 12.6834 -0.0976311 13.3166 0.292893 13.7071L4.29289 17.7071C4.57889 17.9931 5.00901 18.0787 5.38268 17.9239C5.75636 17.7691 6 17.4045 6 17V1.00003Z" fill="black"/>
</svg>
